<?xml version="1.0" standalone="no"?>
<!DOCTYPE svg PUBLIC "-//W3C//DTD SVG 20010904//EN"
 "http://www.w3.org/TR/2001/REC-SVG-20010904/DTD/svg10.dtd">
<svg version="1.0" xmlns="http://www.w3.org/2000/svg"
 width="300.000000pt" height="300.000000pt" viewBox="0 0 300.000000 300.000000"
 preserveAspectRatio="xMidYMid meet">
<metadata>
Created by potrace 1.11, written by Peter Selinger 2001-2013
</metadata>
<g transform="translate(0.000000,300.000000) scale(0.100000,-0.100000)"
fill="#000000" stroke="none">
<path d="M512 2700 c-22 -9 -22 -10 -15 -142 11 -182 10 -882 -1 -1109 l-9
-187 24 -13 c19 -11 104 -14 416 -14 l392 0 6 -81 c4 -44 0 -244 -9 -444 -14
-326 -14 -366 0 -380 12 -12 48 -15 202 -15 103 0 195 3 206 8 18 7 18 18 11
260 l-7 252 30 17 c68 40 78 40 104 0 31 -47 109 -185 184 -327 105 -199 105
-199 155 -207 57 -9 317 -8 349 1 59 16 48 100 -31 229 -22 35 -39 66 -39 69
0 2 -32 57 -72 121 -39 64 -76 126 -83 137 -6 11 -27 45 -46 75 -20 30 -44 70
-53 89 -17 32 -17 33 6 49 48 32 136 130 172 192 69 117 176 407 176 475 l0
23 -187 4 c-158 3 -191 1 -204 -12 -17 -16 -60 -122 -104 -255 -35 -107 -88
-203 -133 -242 -64 -57 -173 -81 -208 -46 -16 16 -16 39 -10 281 6 218 5 267
-7 281 -7 9 -21 37 -31 63 -19 51 -86 133 -116 143 -28 9 -25 19 22 78 85 107
113 215 84 328 -47 182 -155 262 -402 294 -129 17 -732 21 -772 5z m710 -321
c41 -29 46 -35 53 -80 9 -51 -15 -93 -68 -121 -37 -20 -57 -23 -160 -23 -94 0
-120 3 -127 15 -15 23 -13 227 3 234 6 3 69 4 139 2 113 -4 132 -7 160 -27z
m20 -564 c44 -22 63 -62 61 -124 -4 -103 -55 -131 -237 -131 -103 0 -126 3
-137 17 -19 22 -17 242 3 255 7 5 72 7 143 5 100 -3 138 -8 167 -22z"/>
</g>
</svg>
